# xmcd
#
# Track frame offsets: 
#        150
#        36803
#        58127
#        75378
#        85648
#        108035
#        113433
#        130935
#        135649
#        161632
#        167722
#        192530
#        197079
#        209330
#        216482
#        248880
#        269373
#
# Disc length: 3863 seconds
#
# Revision: 1
# Processed by: cddbd v1.5.2PL0 Copyright (c) Steve Scherf et al.
# Submitted via: ExactAudioCopy v0.99pb5
#
DISCID=ee0f1511
DTITLE=Le Bocal - Ego
DYEAR=2006
DGENRE=Jazz
TTITLE0=Lego
TTITLE1=In the eyes of the samouraï
TTITLE2=Chippendoom
TTITLE3=Ego #1
TTITLE4=Head loop
TTITLE5=Ego #2
TTITLE6=Le foutage
TTITLE7=Ego #3
TTITLE8=The innocence of L.A.
TTITLE9=Ego #4
TTITLE10=Mlle Li
TTITLE11=Ego #5
TTITLE12=It was before
TTITLE13=Ego #6
TTITLE14=Rouge coït
TTITLE15=You can park the car in the swimming pool
TTITLE16=Senza parole [Bonus]
EXTD=YEAR: 2006
EXTT0=
EXTT1=
EXTT2=
EXTT3=
EXTT4=
EXTT5=
EXTT6=
EXTT7=
EXTT8=
EXTT9=
EXTT10=
EXTT11=
EXTT12=
EXTT13=
EXTT14=
EXTT15=
EXTT16=
PLAYORDER=
